<?xml version="1.0" standalone="no"?>
<!DOCTYPE svg PUBLIC "-//W3C//DTD SVG 20010904//EN"
 "http://www.w3.org/TR/2001/REC-SVG-20010904/DTD/svg10.dtd">
<svg version="1.0" xmlns="http://www.w3.org/2000/svg"
 width="1387.000000pt" height="1387.000000pt" viewBox="0 0 1387.000000 1387.000000"
 preserveAspectRatio="xMidYMid meet">

<g transform="translate(0.000000,1387.000000) scale(0.100000,-0.100000)"
fill="#111111" stroke="none">
<path d="M0 6935 l0 -6935 6935 0 6935 0 0 6935 0 6935 -6935 0 -6935 0 0
-6935z m6311 4004 l2766 -681 404 160 c222 88 953 377 1624 642 671 265 1257
497 1303 515 46 19 82 30 80 25 -2 -5 -561 -392 -1243 -860 -768 -526 -1241
-857 -1242 -867 -2 -10 289 -1224 646 -2698 357 -1474 648 -2681 647 -2682 -2
-2 -1242 553 -2757 1233 -1515 680 -2762 1239 -2771 1241 -11 3 -685 -453
-1920 -1301 -1752 -1202 -1904 -1304 -1910 -1283 -12 40 -452 2857 -446 2862
3 3 479 194 1059 424 580 230 1081 429 1114 443 58 23 60 25 63 64 1 21 -42
796 -98 1722 -55 926 -100 1692 -100 1703 0 10 3 19 8 19 4 0 1252 -306 2773
-681z m449 -8149 l0 -1170 -85 0 -85 0 2 1136 3 1137 75 33 c41 18 78 34 83
34 4 0 7 -526 7 -1170z m550 1055 l0 -115 -90 0 -90 0 0 115 0 115 90 0 90 0
0 -115z m2207 81 l78 -35 3 -430 2 -431 63 46 c155 114 331 163 546 151 165
-9 284 -47 410 -132 119 -78 198 -196 243 -360 20 -76 22 -105 26 -597 l4
-518 -91 0 -91 0 0 503 c0 546 -1 561 -57 677 -35 72 -133 169 -205 203 -97
46 -172 61 -303 61 -202 0 -339 -52 -472 -178 l-73 -69 0 -598 0 -599 -85 0
-85 0 0 1170 c0 644 2 1170 5 1170 2 0 39 -15 82 -34z m-3502 -746 l245 0 0
-75 0 -75 -245 0 -246 0 3 -572 c3 -537 4 -575 22 -608 30 -56 66 -89 123
-110 87 -32 180 -23 297 29 27 11 50 20 51 19 15 -22 65 -118 65 -125 0 -14
-125 -69 -185 -82 -183 -39 -318 -11 -426 86 -56 51 -85 105 -103 195 -13 65
-16 166 -16 623 l0 545 -81 0 -81 0 6 30 c3 17 8 43 11 58 5 26 12 30 80 46
l75 18 2 206 3 206 75 32 75 33 3 -240 2 -239 245 0z m5360 426 l35 -15 0
-205 0 -206 245 0 245 0 0 -75 0 -75 -245 0 -245 0 0 -569 0 -569 28 -53 c24
-47 36 -58 91 -86 85 -44 152 -44 271 -3 47 16 89 31 93 32 4 2 24 -25 43 -59
l35 -62 -33 -21 c-81 -49 -266 -87 -362 -75 -112 15 -220 79 -275 161 -58 88
-61 124 -61 743 l0 561 -80 0 -80 0 0 75 0 75 80 0 80 0 0 240 0 240 50 -20
c27 -11 65 -26 85 -34z m-8527 -396 c210 -43 384 -167 464 -330 71 -144 71
-145 75 -732 l4 -528 -85 0 -85 0 -4 513 c-4 557 -4 556 -64 674 -156 309
-699 353 -980 79 l-63 -62 0 -602 0 -602 -90 0 -90 0 0 743 0 742 71 36 c44
23 72 33 74 25 2 -6 10 -39 17 -74 l13 -63 55 42 c186 140 438 191 688 139z
m5742 6 c129 -24 251 -78 352 -158 l36 -28 12 57 c20 99 13 93 91 93 l70 0 -4
-852 c-3 -846 -3 -854 -25 -938 -74 -280 -258 -466 -523 -530 -104 -25 -312
-27 -418 -5 -150 31 -325 121 -410 209 l-34 35 43 68 c24 37 45 70 47 72 1 2
34 -26 72 -61 121 -112 258 -167 442 -175 410 -19 639 230 639 695 l0 73 -47
-39 c-220 -183 -592 -221 -872 -91 -262 122 -420 351 -451 649 -18 185 10 361
80 505 133 270 405 433 725 434 55 0 134 -6 175 -13z m-3959 -11 c157 -33 270
-96 391 -217 75 -75 94 -101 137 -190 58 -120 81 -213 88 -355 l6 -103 -725 0
-726 0 13 -67 c51 -259 210 -433 460 -505 66 -18 104 -22 210 -21 214 1 346
48 480 173 l70 65 93 -3 c50 -2 92 -7 92 -10 0 -4 -24 -39 -53 -77 -106 -139
-273 -249 -452 -297 -118 -31 -344 -31 -470 0 -413 104 -657 456 -615 889 13
134 32 202 86 311 102 203 302 357 529 405 93 20 294 21 386 2z m2679 -805 l0
-780 -85 0 -85 0 0 780 0 780 85 0 85 0 0 -780z"/>
<path d="M8295 3046 c-218 -43 -370 -156 -455 -338 -41 -88 -60 -183 -60 -311
0 -206 53 -352 174 -473 127 -127 277 -184 486 -184 206 0 351 53 472 171 l68
66 0 419 0 418 -72 71 c-80 77 -161 123 -268 150 -88 23 -258 28 -345 11z"/>
<path d="M4260 3029 c-41 -10 -104 -34 -140 -51 -78 -40 -183 -137 -227 -210
-34 -57 -77 -177 -87 -245 l-6 -43 635 0 c567 0 635 2 635 16 0 8 -7 47 -16
87 -52 233 -218 399 -451 451 -99 22 -249 20 -343 -5z"/>
</g>
</svg>
